<svg xmlns="http://www.w3.org/2000/svg" width="1800" height="1125" viewBox="0 0 1800 1125"><rect x="0" y="0" width="1800" height="1125" rx="0" fill="#F1EFE8" opacity="1"/><text x="70" y="68" fill="#242826" font-family="Avenir Next, Helvetica, sans-serif" font-size="13" font-weight="650" text-anchor="start" letter-spacing="2">IDENTITY / ICON STUDY</text><text x="70" y="132" fill="#242826" font-family="Avenir Next, Helvetica, sans-serif" font-size="58" font-weight="520" text-anchor="start" letter-spacing="-2.3">The pause is negative space.</text><text x="72" y="174" fill="#242826" font-family="Avenir Next, Helvetica, sans-serif" font-size="18" font-weight="470" text-anchor="start" letter-spacing="0.2">Twelve constructions tested as a mark, an app icon and a 32 px glyph.</text><rect x="70" y="204" width="1660" height="1" rx="0" fill="#242826" opacity="0.16"/><rect x="70" y="250" width="210" height="210" rx="28" fill="#F8F6EF" opacity="1"/><rect x="123" y="302" width="38.266666666666666" height="38.266666666666666" rx="4.2" fill="#242826" opacity="1"/><rect x="171.53333333333333" y="302" width="38.266666666666666" height="38.266666666666666" rx="4.2" fill="#242826" opacity="1"/><rect x="123" y="350.53333333333336" width="38.266666666666666" height="38.266666666666666" rx="4.2" fill="#242826" opacity="1"/><rect x="180.86666666666667" y="357.06666666666666" width="38.266666666666666" height="38.266666666666666" rx="4.2" fill="#D39A83" opacity="1"/><text x="70" y="492" fill="#242826" font-family="Avenir Next, Helvetica, sans-serif" font-size="11" font-weight="700" text-anchor="start" letter-spacing="1.2">01</text><text x="104" y="491" fill="#242826" font-family="Avenir Next, Helvetica, sans-serif" font-size="11" font-weight="650" text-anchor="start" letter-spacing="0.6">TRIAL</text><rect x="236" y="474" width="32" height="32" rx="6" fill="#F8F6EF" opacity="1"/><rect x="242" y="480" width="6.833333333333333" height="6.833333333333333" rx="0.75" fill="#242826" opacity="1"/><rect x="250.66666666666666" y="480" width="6.833333333333333" height="6.833333333333333" rx="0.75" fill="#242826" opacity="1"/><rect x="242" y="488.6666666666667" width="6.833333333333333" height="6.833333333333333" rx="0.75" fill="#242826" opacity="1"/><rect x="252.33333333333334" y="489.8333333333333" width="6.833333333333333" height="6.833333333333333" rx="0.75" fill="#D39A83" opacity="1"/><rect x="345" y="250" width="210" height="210" rx="28" fill="#F8F6EF" opacity="1"/><rect x="398" y="302" width="39.66666666666667" height="16.333333333333336" rx="3.92" fill="#242826" opacity="1"/><rect x="455.4" y="302" width="39.66666666666667" height="16.333333333333336" rx="3.92" fill="#242826" opacity="1"/><rect x="398" y="331.8666666666667" width="39.66666666666667" height="16.333333333333336" rx="3.92" fill="#697F8C" opacity="1"/><rect x="467.53333333333336" y="331.8666666666667" width="39.66666666666667" height="16.333333333333336" rx="3.92" fill="#D39A83" opacity="1"/><rect x="398" y="361.73333333333335" width="39.66666666666667" height="16.333333333333336" rx="3.92" fill="#242826" opacity="1"/><rect x="455.4" y="361.73333333333335" width="39.66666666666667" height="16.333333333333336" rx="3.92" fill="#242826" opacity="1"/><text x="345" y="492" fill="#242826" font-family="Avenir Next, Helvetica, sans-serif" font-size="11" font-weight="700" text-anchor="start" letter-spacing="1.2">02</text><text x="379" y="491" fill="#242826" font-family="Avenir Next, Helvetica, sans-serif" font-size="11" font-weight="650" text-anchor="start" letter-spacing="0.6">TRIAL</text><rect x="511" y="474" width="32" height="32" rx="6" fill="#F8F6EF" opacity="1"/><rect x="517" y="480" width="7.083333333333334" height="2.916666666666667" rx="0.7" fill="#242826" opacity="1"/><rect x="527.25" y="480" width="7.083333333333334" height="2.916666666666667" rx="0.7" fill="#242826" opacity="1"/><rect x="517" y="485.3333333333333" width="7.083333333333334" height="2.916666666666667" rx="0.7" fill="#697F8C" opacity="1"/><rect x="529.4166666666666" y="485.3333333333333" width="7.083333333333334" height="2.916666666666667" rx="0.7" fill="#D39A83" opacity="1"/><rect x="517" y="490.6666666666667" width="7.083333333333334" height="2.916666666666667" rx="0.7" fill="#242826" opacity="1"/><rect x="527.25" y="490.6666666666667" width="7.083333333333334" height="2.916666666666667" rx="0.7" fill="#242826" opacity="1"/><rect x="620" y="250" width="210" height="210" rx="28" fill="#F8F6EF" opacity="1"/><rect x="673" y="302" width="34.53333333333334" height="11.666666666666668" rx="2.8000000000000003" fill="#242826" opacity="1"/><rect x="729.9333333333334" y="302" width="34.53333333333334" height="11.666666666666668" rx="2.8000000000000003" fill="#242826" opacity="1"/><rect x="673" y="323.93333333333334" width="34.53333333333334" height="11.666666666666668" rx="2.8000000000000003" fill="#242826" opacity="1"/><rect x="729.9333333333334" y="323.93333333333334" width="34.53333333333334" height="11.666666666666668" rx="2.8000000000000003" fill="#242826" opacity="1"/><rect x="661.8" y="345.8666666666667" width="34.53333333333334" height="11.666666666666668" rx="2.8000000000000003" fill="#697F8C" opacity="1"/><rect x="741.1333333333333" y="345.8666666666667" width="34.53333333333334" height="11.666666666666668" rx="2.8000000000000003" fill="#D39A83" opacity="1"/><rect x="673" y="367.8" width="34.53333333333334" height="11.666666666666668" rx="2.8000000000000003" fill="#242826" opacity="1"/><rect x="729.9333333333334" y="367.8" width="34.53333333333334" height="11.666666666666668" rx="2.8000000000000003" fill="#242826" opacity="1"/><text x="620" y="492" fill="#242826" font-family="Avenir Next, Helvetica, sans-serif" font-size="11" font-weight="700" text-anchor="start" letter-spacing="1.2">03</text><text x="654" y="491" fill="#242826" font-family="Avenir Next, Helvetica, sans-serif" font-size="11" font-weight="650" text-anchor="start" letter-spacing="0.6">TRIAL</text><rect x="786" y="474" width="32" height="32" rx="6" fill="#F8F6EF" opacity="1"/><rect x="792" y="480" width="6.166666666666667" height="2.0833333333333335" rx="0.5" fill="#242826" opacity="1"/><rect x="802.1666666666666" y="480" width="6.166666666666667" height="2.0833333333333335" rx="0.5" fill="#242826" opacity="1"/><rect x="792" y="483.9166666666667" width="6.166666666666667" height="2.0833333333333335" rx="0.5" fill="#242826" opacity="1"/><rect x="802.1666666666666" y="483.9166666666667" width="6.166666666666667" height="2.0833333333333335" rx="0.5" fill="#242826" opacity="1"/><rect x="790" y="487.8333333333333" width="6.166666666666667" height="2.0833333333333335" rx="0.5" fill="#697F8C" opacity="1"/><rect x="804.1666666666666" y="487.8333333333333" width="6.166666666666667" height="2.0833333333333335" rx="0.5" fill="#D39A83" opacity="1"/><rect x="792" y="491.75" width="6.166666666666667" height="2.0833333333333335" rx="0.5" fill="#242826" opacity="1"/><rect x="802.1666666666666" y="491.75" width="6.166666666666667" height="2.0833333333333335" rx="0.5" fill="#242826" opacity="1"/><rect x="895" y="250" width="210" height="210" rx="28" fill="#F8F6EF" opacity="1"/><rect x="948" y="302" width="29.86666666666667" height="82.13333333333334" rx="3.2666666666666666" fill="#242826" opacity="1"/><rect x="989.0666666666667" y="302" width="29.86666666666667" height="37.333333333333336" rx="3.2666666666666666" fill="#697F8C" opacity="1"/><rect x="999.3333333333334" y="349.6" width="29.86666666666667" height="37.333333333333336" rx="3.2666666666666666" fill="#D39A83" opacity="1"/><text x="895" y="492" fill="#242826" font-family="Avenir Next, Helvetica, sans-serif" font-size="11" font-weight="700" text-anchor="start" letter-spacing="1.2">04</text><text x="929" y="491" fill="#242826" font-family="Avenir Next, Helvetica, sans-serif" font-size="11" font-weight="650" text-anchor="start" letter-spacing="0.6">TRIAL</text><rect x="1061" y="474" width="32" height="32" rx="6" fill="#F8F6EF" opacity="1"/><rect x="1067" y="480" width="5.333333333333334" height="14.666666666666668" rx="0.5833333333333334" fill="#242826" opacity="1"/><rect x="1074.3333333333333" y="480" width="5.333333333333334" height="6.666666666666667" rx="0.5833333333333334" fill="#697F8C" opacity="1"/><rect x="1076.1666666666667" y="488.5" width="5.333333333333334" height="6.666666666666667" rx="0.5833333333333334" fill="#D39A83" opacity="1"/><rect x="1170" y="250" width="210" height="210" rx="28" fill="#F8F6EF" opacity="1"/><rect x="1223" y="302" width="24.26666666666667" height="24.26666666666667" rx="2.986666666666667" fill="#242826" opacity="1"/><rect x="1255.6666666666667" y="302" width="24.26666666666667" height="24.26666666666667" rx="2.986666666666667" fill="#242826" opacity="1"/><rect x="1288.3333333333333" y="302" width="24.26666666666667" height="24.26666666666667" rx="2.986666666666667" fill="#242826" opacity="1"/><rect x="1223" y="334.6666666666667" width="24.26666666666667" height="24.26666666666667" rx="2.986666666666667" fill="#242826" opacity="1"/><rect x="1288.3333333333333" y="334.6666666666667" width="24.26666666666667" height="24.26666666666667" rx="2.986666666666667" fill="#697F8C" opacity="1"/><rect x="1223" y="367.33333333333337" width="24.26666666666667" height="24.26666666666667" rx="2.986666666666667" fill="#242826" opacity="1"/><rect x="1255.6666666666667" y="367.33333333333337" width="24.26666666666667" height="24.26666666666667" rx="2.986666666666667" fill="#242826" opacity="1"/><rect x="1299.5333333333333" y="372" width="24.26666666666667" height="24.26666666666667" rx="2.986666666666667" fill="#D39A83" opacity="1"/><text x="1170" y="492" fill="#242826" font-family="Avenir Next, Helvetica, sans-serif" font-size="11" font-weight="700" text-anchor="start" letter-spacing="1.2">05</text><text x="1204" y="491" fill="#242826" font-family="Avenir Next, Helvetica, sans-serif" font-size="11" font-weight="650" text-anchor="start" letter-spacing="0.6">TRIAL</text><rect x="1336" y="474" width="32" height="32" rx="6" fill="#F8F6EF" opacity="1"/><rect x="1342" y="480" width="4.333333333333334" height="4.333333333333334" rx="0.5333333333333333" fill="#242826" opacity="1"/><rect x="1347.8333333333333" y="480" width="4.333333333333334" height="4.333333333333334" rx="0.5333333333333333" fill="#242826" opacity="1"/><rect x="1353.6666666666667" y="480" width="4.333333333333334" height="4.333333333333334" rx="0.5333333333333333" fill="#242826" opacity="1"/><rect x="1342" y="485.8333333333333" width="4.333333333333334" height="4.333333333333334" rx="0.5333333333333333" fill="#242826" opacity="1"/><rect x="1353.6666666666667" y="485.8333333333333" width="4.333333333333334" height="4.333333333333334" rx="0.5333333333333333" fill="#697F8C" opacity="1"/><rect x="1342" y="491.6666666666667" width="4.333333333333334" height="4.333333333333334" rx="0.5333333333333333" fill="#242826" opacity="1"/><rect x="1347.8333333333333" y="491.6666666666667" width="4.333333333333334" height="4.333333333333334" rx="0.5333333333333333" fill="#242826" opacity="1"/><rect x="1355.6666666666667" y="492.5" width="4.333333333333334" height="4.333333333333334" rx="0.5333333333333333" fill="#D39A83" opacity="1"/><rect x="1445" y="250" width="210" height="210" rx="28" fill="#242826" opacity="1"/><rect x="1498" y="302" width="41.06666666666667" height="17.26666666666667" rx="3.546666666666667" fill="#F1EFE8" opacity="1"/><rect x="1550.2666666666667" y="302" width="41.06666666666667" height="17.26666666666667" rx="3.546666666666667" fill="#F1EFE8" opacity="1"/><rect x="1487.7333333333333" y="331.4" width="41.06666666666667" height="17.26666666666667" rx="3.546666666666667" fill="#A7B5BA" opacity="1"/><rect x="1560.5333333333333" y="331.4" width="41.06666666666667" height="17.26666666666667" rx="3.546666666666667" fill="#D39A83" opacity="1"/><rect x="1498" y="360.8" width="41.06666666666667" height="17.26666666666667" rx="3.546666666666667" fill="#F1EFE8" opacity="1"/><rect x="1550.2666666666667" y="360.8" width="41.06666666666667" height="17.26666666666667" rx="3.546666666666667" fill="#F1EFE8" opacity="1"/><text x="1445" y="492" fill="#242826" font-family="Avenir Next, Helvetica, sans-serif" font-size="11" font-weight="700" text-anchor="start" letter-spacing="1.2">06</text><text x="1479" y="491" fill="#697F8C" font-family="Avenir Next, Helvetica, sans-serif" font-size="11" font-weight="650" text-anchor="start" letter-spacing="0.6">SELECT / FIELD APERTURE</text><rect x="1611" y="474" width="32" height="32" rx="6" fill="#242826" opacity="1"/><rect x="1617" y="480" width="7.333333333333334" height="3.0833333333333335" rx="0.6333333333333334" fill="#F1EFE8" opacity="1"/><rect x="1626.3333333333333" y="480" width="7.333333333333334" height="3.0833333333333335" rx="0.6333333333333334" fill="#F1EFE8" opacity="1"/><rect x="1615.1666666666667" y="485.25" width="7.333333333333334" height="3.0833333333333335" rx="0.6333333333333334" fill="#A7B5BA" opacity="1"/><rect x="1628.1666666666667" y="485.25" width="7.333333333333334" height="3.0833333333333335" rx="0.6333333333333334" fill="#D39A83" opacity="1"/><rect x="1617" y="490.5" width="7.333333333333334" height="3.0833333333333335" rx="0.6333333333333334" fill="#F1EFE8" opacity="1"/><rect x="1626.3333333333333" y="490.5" width="7.333333333333334" height="3.0833333333333335" rx="0.6333333333333334" fill="#F1EFE8" opacity="1"/><rect x="70" y="560" width="210" height="210" rx="28" fill="#F8F6EF" opacity="1"/><rect x="123" y="612" width="25.200000000000003" height="9.8" rx="2.4266666666666667" fill="#242826" opacity="1"/><rect x="180.86666666666667" y="612" width="34.53333333333334" height="9.8" rx="2.4266666666666667" fill="#242826" opacity="1"/><rect x="123" y="629.7333333333333" width="32.66666666666667" height="9.8" rx="2.4266666666666667" fill="#242826" opacity="1"/><rect x="180.86666666666667" y="629.7333333333333" width="28" height="9.8" rx="2.4266666666666667" fill="#242826" opacity="1"/><rect x="123" y="647.4666666666667" width="25.200000000000003" height="9.8" rx="2.4266666666666667" fill="#697F8C" opacity="1"/><rect x="191.13333333333333" y="647.4666666666667" width="34.53333333333334" height="9.8" rx="2.4266666666666667" fill="#D39A83" opacity="1"/><rect x="123" y="665.2" width="32.66666666666667" height="9.8" rx="2.4266666666666667" fill="#242826" opacity="1"/><rect x="180.86666666666667" y="665.2" width="28" height="9.8" rx="2.4266666666666667" fill="#242826" opacity="1"/><rect x="123" y="682.9333333333334" width="25.200000000000003" height="9.8" rx="2.4266666666666667" fill="#242826" opacity="1"/><rect x="180.86666666666667" y="682.9333333333334" width="34.53333333333334" height="9.8" rx="2.4266666666666667" fill="#242826" opacity="1"/><text x="70" y="802" fill="#242826" font-family="Avenir Next, Helvetica, sans-serif" font-size="11" font-weight="700" text-anchor="start" letter-spacing="1.2">07</text><text x="104" y="801" fill="#242826" font-family="Avenir Next, Helvetica, sans-serif" font-size="11" font-weight="650" text-anchor="start" letter-spacing="0.6">TRIAL</text><rect x="236" y="784" width="32" height="32" rx="6" fill="#F8F6EF" opacity="1"/><rect x="242" y="790" width="4.500000000000001" height="1.7500000000000002" rx="0.43333333333333335" fill="#242826" opacity="1"/><rect x="252.33333333333334" y="790" width="6.166666666666667" height="1.7500000000000002" rx="0.43333333333333335" fill="#242826" opacity="1"/><rect x="242" y="793.1666666666666" width="5.833333333333334" height="1.7500000000000002" rx="0.43333333333333335" fill="#242826" opacity="1"/><rect x="252.33333333333334" y="793.1666666666666" width="5" height="1.7500000000000002" rx="0.43333333333333335" fill="#242826" opacity="1"/><rect x="242" y="796.3333333333334" width="4.500000000000001" height="1.7500000000000002" rx="0.43333333333333335" fill="#697F8C" opacity="1"/><rect x="254.16666666666666" y="796.3333333333334" width="6.166666666666667" height="1.7500000000000002" rx="0.43333333333333335" fill="#D39A83" opacity="1"/><rect x="242" y="799.5" width="5.833333333333334" height="1.7500000000000002" rx="0.43333333333333335" fill="#242826" opacity="1"/><rect x="252.33333333333334" y="799.5" width="5" height="1.7500000000000002" rx="0.43333333333333335" fill="#242826" opacity="1"/><rect x="242" y="802.6666666666666" width="4.500000000000001" height="1.7500000000000002" rx="0.43333333333333335" fill="#242826" opacity="1"/><rect x="252.33333333333334" y="802.6666666666666" width="6.166666666666667" height="1.7500000000000002" rx="0.43333333333333335" fill="#242826" opacity="1"/><rect x="345" y="560" width="210" height="210" rx="28" fill="#F8F6EF" opacity="1"/><rect x="398" y="612" width="31.733333333333334" height="19.6" rx="3.733333333333334" fill="#242826" opacity="1"/><rect x="440.93333333333334" y="612" width="45.73333333333334" height="19.6" rx="3.733333333333334" fill="#242826" opacity="1"/><rect x="398" y="641.8666666666667" width="42.93333333333333" height="19.6" rx="3.733333333333334" fill="#697F8C" opacity="1"/><rect x="455.8666666666667" y="641.8666666666667" width="30.8" height="19.6" rx="3.733333333333334" fill="#D39A83" opacity="1"/><rect x="398" y="671.7333333333333" width="31.733333333333334" height="19.6" rx="3.733333333333334" fill="#242826" opacity="1"/><rect x="446.53333333333336" y="675.4666666666667" width="40.13333333333333" height="19.6" rx="3.733333333333334" fill="#242826" opacity="1"/><text x="345" y="802" fill="#242826" font-family="Avenir Next, Helvetica, sans-serif" font-size="11" font-weight="700" text-anchor="start" letter-spacing="1.2">08</text><text x="379" y="801" fill="#242826" font-family="Avenir Next, Helvetica, sans-serif" font-size="11" font-weight="650" text-anchor="start" letter-spacing="0.6">TRIAL</text><rect x="511" y="784" width="32" height="32" rx="6" fill="#F8F6EF" opacity="1"/><rect x="517" y="790" width="5.666666666666667" height="3.5000000000000004" rx="0.6666666666666667" fill="#242826" opacity="1"/><rect x="524.6666666666666" y="790" width="8.166666666666668" height="3.5000000000000004" rx="0.6666666666666667" fill="#242826" opacity="1"/><rect x="517" y="795.3333333333334" width="7.666666666666666" height="3.5000000000000004" rx="0.6666666666666667" fill="#697F8C" opacity="1"/><rect x="527.3333333333334" y="795.3333333333334" width="5.5" height="3.5000000000000004" rx="0.6666666666666667" fill="#D39A83" opacity="1"/><rect x="517" y="800.6666666666666" width="5.666666666666667" height="3.5000000000000004" rx="0.6666666666666667" fill="#242826" opacity="1"/><rect x="525.6666666666666" y="801.3333333333334" width="7.166666666666667" height="3.5000000000000004" rx="0.6666666666666667" fill="#242826" opacity="1"/><rect x="620" y="560" width="210" height="210" rx="28" fill="#F8F6EF" opacity="1"/><rect x="673" y="612" width="29.400000000000002" height="29.400000000000002" rx="3.2666666666666666" fill="#242826" opacity="1"/><rect x="712.6666666666666" y="612" width="29.400000000000002" height="29.400000000000002" rx="3.2666666666666666" fill="#242826" opacity="1"/><rect x="673" y="651.6666666666666" width="29.400000000000002" height="29.400000000000002" rx="3.2666666666666666" fill="#242826" opacity="1"/><rect x="723.4" y="657.7333333333333" width="29.400000000000002" height="29.400000000000002" rx="10.266666666666667" fill="#D39A83" opacity="1"/><text x="620" y="802" fill="#242826" font-family="Avenir Next, Helvetica, sans-serif" font-size="11" font-weight="700" text-anchor="start" letter-spacing="1.2">09</text><text x="654" y="801" fill="#242826" font-family="Avenir Next, Helvetica, sans-serif" font-size="11" font-weight="650" text-anchor="start" letter-spacing="0.6">TRIAL</text><rect x="786" y="784" width="32" height="32" rx="6" fill="#F8F6EF" opacity="1"/><rect x="792" y="790" width="5.25" height="5.25" rx="0.5833333333333334" fill="#242826" opacity="1"/><rect x="799.0833333333334" y="790" width="5.25" height="5.25" rx="0.5833333333333334" fill="#242826" opacity="1"/><rect x="792" y="797.0833333333334" width="5.25" height="5.25" rx="0.5833333333333334" fill="#242826" opacity="1"/><rect x="801" y="798.1666666666666" width="5.25" height="5.25" rx="1.8333333333333335" fill="#D39A83" opacity="1"/><rect x="895" y="560" width="210" height="210" rx="28" fill="#F8F6EF" opacity="1"/><rect x="948" y="612" width="31.733333333333334" height="11.666666666666668" rx="2.6133333333333337" fill="#242826" opacity="1"/><rect x="1004" y="612" width="31.733333333333334" height="11.666666666666668" rx="2.6133333333333337" fill="#242826" opacity="1"/><rect x="940.5333333333333" y="633.9333333333334" width="31.733333333333334" height="11.666666666666668" rx="2.6133333333333337" fill="#697F8C" opacity="1"/><rect x="1004" y="633.9333333333334" width="31.733333333333334" height="11.666666666666668" rx="2.6133333333333337" fill="#242826" opacity="1"/><rect x="948" y="655.8666666666667" width="31.733333333333334" height="11.666666666666668" rx="2.6133333333333337" fill="#242826" opacity="1"/><rect x="1014.2666666666667" y="655.8666666666667" width="31.733333333333334" height="11.666666666666668" rx="2.6133333333333337" fill="#D39A83" opacity="1"/><rect x="948" y="677.8" width="31.733333333333334" height="11.666666666666668" rx="2.6133333333333337" fill="#242826" opacity="1"/><rect x="1004" y="677.8" width="31.733333333333334" height="11.666666666666668" rx="2.6133333333333337" fill="#242826" opacity="1"/><text x="895" y="802" fill="#242826" font-family="Avenir Next, Helvetica, sans-serif" font-size="11" font-weight="700" text-anchor="start" letter-spacing="1.2">10</text><text x="929" y="801" fill="#242826" font-family="Avenir Next, Helvetica, sans-serif" font-size="11" font-weight="650" text-anchor="start" letter-spacing="0.6">TRIAL</text><rect x="1061" y="784" width="32" height="32" rx="6" fill="#F8F6EF" opacity="1"/><rect x="1067" y="790" width="5.666666666666667" height="2.0833333333333335" rx="0.46666666666666673" fill="#242826" opacity="1"/><rect x="1077" y="790" width="5.666666666666667" height="2.0833333333333335" rx="0.46666666666666673" fill="#242826" opacity="1"/><rect x="1065.6666666666667" y="793.9166666666666" width="5.666666666666667" height="2.0833333333333335" rx="0.46666666666666673" fill="#697F8C" opacity="1"/><rect x="1077" y="793.9166666666666" width="5.666666666666667" height="2.0833333333333335" rx="0.46666666666666673" fill="#242826" opacity="1"/><rect x="1067" y="797.8333333333334" width="5.666666666666667" height="2.0833333333333335" rx="0.46666666666666673" fill="#242826" opacity="1"/><rect x="1078.8333333333333" y="797.8333333333334" width="5.666666666666667" height="2.0833333333333335" rx="0.46666666666666673" fill="#D39A83" opacity="1"/><rect x="1067" y="801.75" width="5.666666666666667" height="2.0833333333333335" rx="0.46666666666666673" fill="#242826" opacity="1"/><rect x="1077" y="801.75" width="5.666666666666667" height="2.0833333333333335" rx="0.46666666666666673" fill="#242826" opacity="1"/><rect x="1170" y="560" width="210" height="210" rx="28" fill="#F8F6EF" opacity="1"/><rect x="1223" y="612" width="30.8" height="82.13333333333334" rx="3.733333333333334" fill="#242826" opacity="1"/><rect x="1265.9333333333334" y="612" width="48.53333333333334" height="26.133333333333333" rx="3.733333333333334" fill="#242826" opacity="1"/><rect x="1265.9333333333334" y="648.4" width="36.4" height="26.133333333333333" rx="3.733333333333334" fill="#697F8C" opacity="1"/><rect x="1279" y="684.8" width="35.46666666666667" height="26.133333333333333" rx="3.733333333333334" fill="#D39A83" opacity="1"/><text x="1170" y="802" fill="#242826" font-family="Avenir Next, Helvetica, sans-serif" font-size="11" font-weight="700" text-anchor="start" letter-spacing="1.2">11</text><text x="1204" y="801" fill="#242826" font-family="Avenir Next, Helvetica, sans-serif" font-size="11" font-weight="650" text-anchor="start" letter-spacing="0.6">TRIAL</text><rect x="1336" y="784" width="32" height="32" rx="6" fill="#F8F6EF" opacity="1"/><rect x="1342" y="790" width="5.5" height="14.666666666666668" rx="0.6666666666666667" fill="#242826" opacity="1"/><rect x="1349.6666666666667" y="790" width="8.666666666666668" height="4.666666666666667" rx="0.6666666666666667" fill="#242826" opacity="1"/><rect x="1349.6666666666667" y="796.5" width="6.5" height="4.666666666666667" rx="0.6666666666666667" fill="#697F8C" opacity="1"/><rect x="1352" y="803" width="6.333333333333333" height="4.666666666666667" rx="0.6666666666666667" fill="#D39A83" opacity="1"/><rect x="1445" y="560" width="210" height="210" rx="28" fill="#F8F6EF" opacity="1"/><rect x="1498" y="612" width="20.533333333333335" height="20.533333333333335" rx="2.6133333333333337" fill="#242826" opacity="1"/><rect x="1527.8666666666666" y="612" width="20.533333333333335" height="20.533333333333335" rx="2.6133333333333337" fill="#242826" opacity="1"/><rect x="1557.7333333333333" y="612" width="20.533333333333335" height="20.533333333333335" rx="2.6133333333333337" fill="#242826" opacity="1"/><rect x="1498" y="641.8666666666667" width="20.533333333333335" height="20.533333333333335" rx="2.6133333333333337" fill="#242826" opacity="1"/><rect x="1557.7333333333333" y="641.8666666666667" width="20.533333333333335" height="20.533333333333335" rx="2.6133333333333337" fill="#697F8C" opacity="1"/><rect x="1498" y="671.7333333333333" width="20.533333333333335" height="20.533333333333335" rx="2.6133333333333337" fill="#242826" opacity="1"/><rect x="1527.8666666666666" y="671.7333333333333" width="20.533333333333335" height="20.533333333333335" rx="2.6133333333333337" fill="#242826" opacity="1"/><rect x="1568" y="676.4" width="20.533333333333335" height="20.533333333333335" rx="2.6133333333333337" fill="#D39A83" opacity="1"/><text x="1445" y="802" fill="#242826" font-family="Avenir Next, Helvetica, sans-serif" font-size="11" font-weight="700" text-anchor="start" letter-spacing="1.2">12</text><text x="1479" y="801" fill="#242826" font-family="Avenir Next, Helvetica, sans-serif" font-size="11" font-weight="650" text-anchor="start" letter-spacing="0.6">TRIAL</text><rect x="1611" y="784" width="32" height="32" rx="6" fill="#F8F6EF" opacity="1"/><rect x="1617" y="790" width="3.666666666666667" height="3.666666666666667" rx="0.46666666666666673" fill="#242826" opacity="1"/><rect x="1622.3333333333333" y="790" width="3.666666666666667" height="3.666666666666667" rx="0.46666666666666673" fill="#242826" opacity="1"/><rect x="1627.6666666666667" y="790" width="3.666666666666667" height="3.666666666666667" rx="0.46666666666666673" fill="#242826" opacity="1"/><rect x="1617" y="795.3333333333334" width="3.666666666666667" height="3.666666666666667" rx="0.46666666666666673" fill="#242826" opacity="1"/><rect x="1627.6666666666667" y="795.3333333333334" width="3.666666666666667" height="3.666666666666667" rx="0.46666666666666673" fill="#697F8C" opacity="1"/><rect x="1617" y="800.6666666666666" width="3.666666666666667" height="3.666666666666667" rx="0.46666666666666673" fill="#242826" opacity="1"/><rect x="1622.3333333333333" y="800.6666666666666" width="3.666666666666667" height="3.666666666666667" rx="0.46666666666666673" fill="#242826" opacity="1"/><rect x="1629.5" y="801.5" width="3.666666666666667" height="3.666666666666667" rx="0.46666666666666673" fill="#D39A83" opacity="1"/><rect x="70" y="882" width="1660" height="1" rx="0" fill="#242826" opacity="0.16"/><text x="70" y="927" fill="#242826" font-family="Avenir Next, Helvetica, sans-serif" font-size="13" font-weight="650" text-anchor="start" letter-spacing="2">SELECTION CRITERIA</text><text x="70" y="970" fill="#242826" font-family="Avenir Next, Helvetica, sans-serif" font-size="17" font-weight="560" text-anchor="start" letter-spacing="0">32 px legibility</text><text x="345" y="970" fill="#242826" font-family="Avenir Next, Helvetica, sans-serif" font-size="17" font-weight="560" text-anchor="start" letter-spacing="0">not a literal pause icon</text><text x="690" y="970" fill="#242826" font-family="Avenir Next, Helvetica, sans-serif" font-size="17" font-weight="560" text-anchor="start" letter-spacing="0">not an app-grid tile</text><text x="1010" y="970" fill="#242826" font-family="Avenir Next, Helvetica, sans-serif" font-size="17" font-weight="560" text-anchor="start" letter-spacing="0">behavior before decoration</text><text x="1395" y="970" fill="#242826" font-family="Avenir Next, Helvetica, sans-serif" font-size="17" font-weight="560" text-anchor="start" letter-spacing="0">one-color fallback</text><text x="70" y="1048" fill="#242826" font-family="Avenir Next, Helvetica, sans-serif" font-size="24" font-weight="540" text-anchor="start" letter-spacing="-0.3">Selected 06: six measured modules open around the center; the offset pair records the moment of choice.</text></svg>